<svg xmlns="http://www.w3.org/2000/svg" viewBox="0 0 32 32" id="bookmark"><path fill="#ffc661" d="M24,1H8A3,3,0,0,0,5,4V30a1,1,0,0,0,1.37.93L16,27.08l9.63,3.85A.94.94,0,0,0,26,31a1,1,0,0,0,1-1V4A3,3,0,0,0,24,1Z"></path><path fill="#e49f4e" d="M6.38,5.88a3,3,0,0,1,3-3h16a3,3,0,0,1,1.53.43A3,3,0,0,0,24,1H8A3,3,0,0,0,5,4V30a1,1,0,0,0,1.37.93h0Z"></path><path fill="#e49f4e" d="M23.13,14.45A2.25,2.25,0,0,0,21,12.89H19.21a.28.28,0,0,1-.25-.21l-.55-1.75h0a2.25,2.25,0,0,0-4.32,0l-.55,1.75a.28.28,0,0,1-.25.21H11.52a2.23,2.23,0,0,0-2.14,1.56,2.31,2.31,0,0,0,.79,2.62l1.43,1.08a.34.34,0,0,1,.11.38l-.54,1.75A2.33,2.33,0,0,0,12,22.9a2.22,2.22,0,0,0,1.29.41,2.18,2.18,0,0,0,1.34-.46l1.44-1.08a.21.21,0,0,1,.28,0l1.43,1.08a2.21,2.21,0,0,0,2.64,0,2.33,2.33,0,0,0,.87-2.62l-.54-1.75a.34.34,0,0,1,.11-.38l1.43-1.08A2.33,2.33,0,0,0,23.13,14.45Z"></path><path fill="#eef5fd" d="M22.88,14.14a2.26,2.26,0,0,0-2.15-1.57H19a.27.27,0,0,1-.25-.21l-.55-1.75h0a2.25,2.25,0,0,0-4.32,0l-.55,1.75a.27.27,0,0,1-.25.21H11.27a2.24,2.24,0,0,0-2.14,1.57,2.31,2.31,0,0,0,.79,2.62l1.43,1.08a.34.34,0,0,1,.11.38L10.92,20a2.33,2.33,0,0,0,.87,2.62,2.29,2.29,0,0,0,1.29.41,2.18,2.18,0,0,0,1.34-.46l1.44-1.08a.21.21,0,0,1,.28,0l1.43,1.08a2.21,2.21,0,0,0,2.64.05A2.33,2.33,0,0,0,21.08,20l-.54-1.75a.34.34,0,0,1,.11-.38l1.43-1.08A2.33,2.33,0,0,0,22.88,14.14Z"></path><path fill="#d7e2f2" d="M12.36,22.8a2.31,2.31,0,0,1-.88-2.61L12,18.44a.35.35,0,0,0-.11-.38L10.49,17a2.31,2.31,0,0,1-.8-2.62,2.25,2.25,0,0,1,2.14-1.57H13.6a.28.28,0,0,0,.26-.21l.54-1.75a2.24,2.24,0,0,1,2.16-1.61,2.51,2.51,0,0,1,.55.07A2.32,2.32,0,0,0,16,9a2.23,2.23,0,0,0-2.16,1.61l-.55,1.75a.27.27,0,0,1-.25.21H11.27a2.24,2.24,0,0,0-2.14,1.57,2.31,2.31,0,0,0,.79,2.62l1.43,1.08a.34.34,0,0,1,.11.38L10.92,20a2.33,2.33,0,0,0,.87,2.62,2.5,2.5,0,0,0,.81.34A1.83,1.83,0,0,1,12.36,22.8Z"></path><path fill="#c9c1f5" d="M24,1H8A3,3,0,0,0,5,4V7H27V4A3,3,0,0,0,24,1Z"></path><path fill="#afbdd6" d="M6.38,5.88a3,3,0,0,1,3-3h16a3,3,0,0,1,1.53.43,2.8,2.8,0,0,0-.37-.89l0,0a2.69,2.69,0,0,0-.2-.27A1.83,1.83,0,0,1,26.19,2L26,1.76l-.2-.16-.22-.15-.26-.14-.21-.1-.34-.1-.19-.05A2.6,2.6,0,0,0,24,1H8A3,3,0,0,0,5,4V7H6.38Z"></path></svg>