<svg xmlns="http://www.w3.org/2000/svg" width="510" height="511" fill="none" viewBox="0 0 510 511" id="menu"><path fill="#000" fill-rule="evenodd" d="M246 181C246 186.523 250.477 191 256 191 261.523 191 266 186.523 266 181 266 175.477 261.523 171 256 171 250.477 171 246 175.477 246 181zM256 156C242.193 156 231 167.193 231 181 231 194.807 242.193 206 256 206 269.807 206 281 194.807 281 181 281 167.193 269.807 156 256 156zM246 256C246 261.523 250.477 266 256 266 261.523 266 266 261.523 266 256 266 250.477 261.523 246 256 246 250.477 246 246 250.477 246 256zM256 231C242.193 231 231 242.193 231 256 231 269.807 242.193 281 256 281 269.807 281 281 269.807 281 256 281 242.193 269.807 231 256 231zM246 331C246 336.523 250.477 341 256 341 261.523 341 266 336.523 266 331 266 325.477 261.523 321 256 321 250.477 321 246 325.477 246 331zM256 306C242.193 306 231 317.193 231 331 231 344.807 242.193 356 256 356 269.807 356 281 344.807 281 331 281 317.193 269.807 306 256 306z" clip-rule="evenodd"></path></svg>