<svg xmlns="http://www.w3.org/2000/svg" enable-background="new 0 0 500 500" viewBox="0 0 500 500" id="notification"><path fill="#fff" d="M305.1,394.8c0,29.3-23.8,53.1-53.1,53.1c-29.3,0-53.1-23.8-53.1-53.1c0-29.3,23.8-53.1,53.1-53.1
		C281.4,341.8,305.1,365.5,305.1,394.8z"></path><path fill="#ffe600" d="M252.1,452.5c-31.8,0-57.6-25.8-57.6-57.6s25.8-57.6,57.6-57.6s57.6,25.8,57.6,57.6S283.8,452.5,252.1,452.5z
		 M252.1,346.3c-26.7,0-48.5,21.8-48.5,48.5c0,26.7,21.8,48.5,48.5,48.5c26.7,0,48.5-21.8,48.5-48.5
		C300.6,368.1,278.8,346.3,252.1,346.3z"></path><circle cx="252" cy="78.3" r="26.5" fill="#fff"></circle><circle cx="252" cy="94.2" r="26.5" fill="#f83baf"></circle><path fill="#ffe600" d="M252,109.4c-17.1,0-31.1-13.9-31.1-31.1s13.9-31.1,31.1-31.1s31.1,13.9,31.1,31.1S269.2,109.4,252,109.4z
		 M252,56.4c-12.1,0-22,9.9-22,22s9.9,22,22,22c12.1,0,22-9.9,22-22S264.2,56.4,252,56.4z"></path><path fill="#fff" d="M373.5,247.7c0-140.9-91.7-151.3-121.4-151.3c-29.7,0-121.4,10.3-121.4,151.3c0,107.8-54,123.5-54,123.5
		c107,25.5,243.8,25.5,350.8,0C427.5,371.2,373.5,355.6,373.5,247.7z"></path><path fill="#f83baf" d="M373.5,270.8c0-140.9-91.7-151.3-121.4-151.3c-29.7,0-121.4,10.3-121.4,151.3c0,72.2-36.9,103.1-61.3,115.6
		c-5.8,3-4.5,11.5,1.8,12.7c102,19.1,260.8,19.1,363,0c6.4-1.2,7.6-9.8,1.8-12.7C411.1,373.9,373.5,343,373.5,270.8z"></path><path fill="#ffe600" d="M252.1,394.8c-70.6,0-123-6.4-176.8-19.2c-2.3-0.6-3.9-2.4-3.9-4.4s1.7-3.9,4-4.4c2.8-0.6,50-16.5,50-119.1
		c0-144.6,97-155.8,126.7-155.8s126.7,11.2,126.7,155.8c0,103.1,49.3,118.9,50,119.1c2.3,0.5,3.9,2.3,4,4.4c0,2.1-1.6,3.9-3.9,4.4
		C375.1,388.4,322.7,394.8,252.1,394.8z M92.8,370.1c101.7,20.9,217,20.9,318.7,0c-22.2-11-43.1-41.7-43.1-122.4
		C368.3,115.3,287,101,252.1,101c-34.9,0-116.2,14.3-116.2,146.7C135.9,328.3,115,359.1,92.8,370.1z"></path><path fill="#ffe600" d="M159.9 346.7c-.7 0-1.4-.1-2.1-.4-2.6-1-3.8-3.7-2.6-6 11.4-22.3 17.2-53.4 17.2-92.5 0-11.1.4-21.8 1-31.7.2-2.5 2.9-4.4 5.5-4.3 2.9.2 5.1 2.3 4.9 4.8-.7 9.8-1 20.3-1 31.2 0 40.4-6.1 72.8-18.1 96.3C163.8 345.7 161.9 346.7 159.9 346.7zM182 191.4c-.2 0-.5 0-.7 0-2.9-.3-4.9-2.7-4.4-5.1 1.5-9.2 3.4-17.9 5.7-25.8.7-2.4 3.5-3.9 6.4-3.3 2.8.6 4.5 3.1 3.8 5.5-2.2 7.6-4 16-5.5 24.9C186.8 189.7 184.5 191.4 182 191.4zM418.1 174.9c-2-2.1-5.3-2.1-7.4-.1-2.1 2-2.1 5.3-.1 7.4 29.9 30.7 29.9 80.6 0 111.3-2 2.1-2 5.4.1 7.4 1 1 2.3 1.5 3.7 1.5 1.4 0 2.8-.6 3.7-1.6C452 266.1 452 209.6 418.1 174.9z"></path><path fill="#ffe600" d="M395.3 197.7c-1-1-2.3-1.6-3.7-1.6-1.4 0-2.7.5-3.7 1.5-1 1-1.6 2.3-1.6 3.7 0 1.4.5 2.7 1.5 3.7 17.7 18.1 17.7 47.5 0 65.6-2 2.1-2 5.4.1 7.4 1 1 2.3 1.5 3.7 1.5 1.4 0 2.8-.6 3.7-1.6C416.9 255.8 416.9 219.8 395.3 197.7zM87.5 182.2c2-2.1 2-5.4-.1-7.4-2.1-2-5.4-2-7.4.1-33.9 34.7-33.9 91.2 0 125.9 1 1 2.3 1.6 3.7 1.6 1.4 0 2.7-.5 3.7-1.5 2.1-2 2.1-5.3.1-7.4C57.6 262.8 57.6 212.9 87.5 182.2z"></path><path fill="#ffe600" d="M111.8,201.3c0-1.4-0.6-2.7-1.6-3.7c-2.1-2-5.4-2-7.4,0.1c-21.6,22.1-21.6,58.1,0,80.3c1,1,2.3,1.6,3.7,1.6
			c1.4,0,2.7-0.5,3.7-1.5c2.1-2,2.1-5.3,0.1-7.4c-17.7-18.1-17.7-47.5,0-65.6C111.3,204,111.8,202.7,111.8,201.3z"></path></svg>